<?xml version="1.0" encoding="utf-8"?>
<!-- Generator: Adobe Illustrator 15.1.0, SVG Export Plug-In . SVG Version: 6.00 Build 0)  -->
<!DOCTYPE svg PUBLIC "-//W3C//DTD SVG 1.1//EN" "http://www.w3.org/Graphics/SVG/1.1/DTD/svg11.dtd">
<svg version="1.1" id="Layer_1" xmlns="http://www.w3.org/2000/svg" xmlns:xlink="http://www.w3.org/1999/xlink" x="0px" y="0px"
	 width="23.3px" height="32.1px" viewBox="0 17.8 23.3 32.1" enable-background="new 0 17.8 23.3 32.1" xml:space="preserve">
<path d="M23.3,44.3c-0.1-0.4-0.4-0.6-0.8-0.6H6.1c-0.5-1.1-1.6-2-2.9-2C1.4,41.7,0,43.1,0,45c0,1.8,1.4,3.3,3.2,3.3
	c1.4,0,2.6-0.9,3-2.3c0.6,0.8,1.1,1.9,1.3,3.2c0.1,0.4,0.4,0.7,0.8,0.7h11.5c0.4,0,0.7-0.3,0.8-0.7c0,0,0.5-2.8,2.4-4
	C23.3,45,23.4,44.7,23.3,44.3z M3.2,46.5c-0.8,0-1.5-0.7-1.5-1.6s0.7-1.6,1.5-1.6c0.8,0,1.5,0.7,1.5,1.6S4,46.5,3.2,46.5z"/>
<path d="M13.7,25.6L13.7,25.6c-0.9,0-1.7-0.6-2.2-1.4c-0.3-0.7-0.3-1.5,0-2.2c0.7-1.4,0.2-3,0.2-3.1c-0.1-0.3,0-0.6,0.2-0.9
	c0.2-0.2,0.5-0.3,0.8-0.2c0.3,0.2,2.9,1.4,3.5,3.5c0.3,0.8,0.2,1.5-0.1,2.3C15.6,24.9,14.8,25.6,13.7,25.6z M13.4,20.2
	c0,0.7-0.1,1.7-0.5,2.6c-0.1,0.2-0.1,0.4,0,0.6c0.2,0.3,0.6,0.6,1,0.6l0,0c0.4,0,0.9-0.3,1-0.9c0.2-0.3,0.2-0.6,0.1-1
	C14.7,21.4,14,20.7,13.4,20.2z"/>
<path d="M13.8,28.6c-0.3,0-0.7-0.5-0.7-1.1v-2.7c0-0.6,0.3-1.1,0.7-1.1s0.7,0.5,0.7,1.1v2.7C14.5,28.1,14.2,28.6,13.8,28.6z"/>
<path d="M10.3,45.2c-0.3,0-0.7-0.5-0.7-1.1c0-0.3,0-0.9,0-1.7c0.1-2.9,0.3-9-0.2-11.6c-0.3-1.6-0.2-2.8,0.3-3.5
	c0.7-1.1,1.8-0.6,2.1-0.5c0.2,0.1,0.3,0.2,0.5,0.3c0.9,0.5,1,0.6,3.7-2.1c0.9-0.9,2-1.8,2.8-0.9c1,1,0.7,3.8,0.3,6.9
	c-0.1,0.5-0.1,1-0.2,1.5c-0.4,4-0.2,11-0.2,11.1c0,0.6-0.3,1.1-0.7,1.2c-0.3,0-0.7-0.5-0.7-1c0-0.3-0.2-7.3,0.3-11.6
	c0.1-0.5,0.1-1,0.2-1.6c0.2-1.5,0.4-3.9,0.3-4.6c-0.1,0-0.4,0.1-1.3,0.9c-2.9,3-3.5,3.1-4.9,2.3c-0.2-0.1-0.3-0.2-0.5-0.2
	c-0.3-0.2-0.6-0.2-0.7-0.1c0,0-0.1,0.2,0.1,1.3c0.5,2.9,0.3,9.1,0.3,12.3c0,0.7,0,1.3,0,1.5C11,44.7,10.8,45.2,10.3,45.2z"/>
</svg>
