<?xml version="1.0" encoding="utf-8"?>
<!-- Generator: Adobe Illustrator 15.1.0, SVG Export Plug-In . SVG Version: 6.00 Build 0)  -->
<!DOCTYPE svg PUBLIC "-//W3C//DTD SVG 1.1//EN" "http://www.w3.org/Graphics/SVG/1.1/DTD/svg11.dtd">
<svg version="1.1" id="Layer_1" xmlns="http://www.w3.org/2000/svg" xmlns:xlink="http://www.w3.org/1999/xlink"
	 viewBox="0 0 24 50" enable-background="new 0 0 24 50" xml:space="preserve">
<path d="M22.5,12l-0.2,0.3l0.3-0.7c0.6-1.5,0.8-2.7,0.6-4.4c-0.1-1.5-0.5-3.3-1.3-5c-0.3-0.8-1-2.2-1-2.1c0,0,0,0.2,0,0.4
	c0.1,1.9,0,4.1-0.4,5.4l-0.1,0.3L20,6.4c-0.3,0.2-0.5,0.3-0.5,0.3c0,0-0.2-0.3-0.4-0.8c-0.2-0.4-0.4-1-0.5-1.2
	c-0.3-0.5-0.8-1.5-0.8-1.5c0,0,0,0.1,0,0.2c0,0.2,0,0.3-0.2,0.8c-0.2,0.5-0.3,0.6-0.5,0.8c-0.3,0.4-0.7,0.7-1.4,1.4L15,7l0-0.2
	c0-0.1,0.1-0.3,0.1-0.4c0-0.1,0.1-0.2,0.1-0.2c0,0-0.9,0.6-1.2,1c-1.2,1-1.9,2-2.2,3c-0.4,1.2-0.4,2.4-0.2,3.4
	c0.1,0.2,0.1,0.4,0.1,0.4c0,0-0.1,0-0.2,0l-0.2-0.1l-0.6,1.5L10,16.9l0.6,1.1c0.4,0.6,0.6,1.2,0.6,1.2c0,0-0.1,0.2-0.1,0.4
	c-0.4,1.4-0.6,1.8-0.8,2.4c-0.4,1.3-0.6,1.9-0.8,2.2c-0.1,0.3-0.1,0.3-0.1,0.6l0,0.3l-0.9,2.2c-0.5,1.2-1.3,3.2-1.8,4.5
	c-2,4.8-2.9,7-3.7,9.1c-0.5,1.2-1.3,3.2-1.9,4.5c-1.3,3-1.3,3.1-0.8,3.5c0.4,0.3,1.4,0.7,1.8,0.7c0.4,0,0.6-0.2,1.7-2.9
	c0.5-1.2,1.4-3.2,2-4.4c0.6-1.2,1.5-3.3,2-4.5c1.6-3.5,2.9-6.5,4.1-9l1-2.2l0.3-0.2c0.2-0.2,0.3-0.3,0.4-0.5
	c0.2-0.5,1.4-2.7,2.4-4.4l0.1-0.2l1.3-0.3l1.3-0.3l0.6-1.5l0.6-1.5l-0.1-0.1c-0.1,0-0.1-0.1-0.1-0.1c0,0,0.1-0.1,0.2-0.1
	c0.9-0.5,1.7-1.7,2.2-3.1c0.2-0.7,0.3-0.9,0.5-1.7c0.1-0.3,0.1-0.6,0.1-0.6C22.7,11.7,22.7,11.7,22.5,12z M22,12.6
	c0.1,1.3-2.4,4-3,4.1s-4.3-1.8-4.3-1.8s-2.1-1.1-2.4-1.6l-0.5-0.6c-0.3-0.6,0-0.6,0-1.2c0.1-1.4,0.9-2.3,0.9-2.6s2.1-2.2,2.1-2.1
	s-0.7,1,0.6,0.4C17,6.5,18,3.9,18,4.2s0.8,2.2,0.8,2.2c0.3,0.5,0.6,1.3,1.4,0.5c1-1,1.1-2.1,1.1-2.1c0.1-1.3,0-2.8,0.1-2.6
	c0.1,0.2,0.7,1.8,0.8,2.2c0,0,0,0,0,0.1c0,0,0,0,0-0.1c0-0.1,0.7,3,0.5,3.3l-0.4,2.4C22.2,10.5,21.9,11.2,22,12.6z"/>
</svg>
