<?xml version="1.0" encoding="utf-8"?>
<!-- Generator: Adobe Illustrator 15.1.0, SVG Export Plug-In . SVG Version: 6.00 Build 0)  -->
<!DOCTYPE svg PUBLIC "-//W3C//DTD SVG 1.1//EN" "http://www.w3.org/Graphics/SVG/1.1/DTD/svg11.dtd">
<svg version="1.1" id="Layer_1" xmlns="http://www.w3.org/2000/svg" xmlns:xlink="http://www.w3.org/1999/xlink" x="0px" y="0px"
	 width="160px" height="160px" viewBox="0 0 160 160" enable-background="new 0 0 160 160" xml:space="preserve">
<path fill="#231F20" d="M159.666,80c-7.954-0.371-15.909-0.644-23.865-0.868c-0.228-14.754-6.202-28.132-15.785-37.997
	c4.778-5.082,9.521-10.197,14.214-15.364c-5.168,4.692-10.282,9.436-15.364,14.214c-9.866-9.585-23.246-15.559-38.001-15.786
	C80.64,16.244,80.369,8.289,80,0.333c-0.369,7.956-0.64,15.911-0.864,23.866C64.38,24.426,51.001,30.4,41.135,39.984
	c-5.082-4.777-10.197-9.521-15.364-14.213c4.692,5.167,9.436,10.283,14.213,15.364C30.4,51.001,24.426,64.38,24.199,79.136
	C16.244,79.36,8.289,79.631,0.333,80c7.956,0.369,15.911,0.64,23.866,0.864c0.227,14.753,6.199,28.132,15.782,37.999
	c-4.777,5.082-9.52,10.198-14.21,15.367c5.168-4.691,10.285-9.435,15.368-14.211c9.864,9.582,23.241,15.555,37.993,15.782
	c0.224,7.956,0.497,15.911,0.868,23.865c0.371-7.954,0.644-15.909,0.868-23.865c14.752-0.228,28.129-6.2,37.994-15.782
	c5.082,4.776,10.198,9.52,15.367,14.211c-4.691-5.169-9.435-10.285-14.211-15.367c9.582-9.865,15.555-23.242,15.782-37.994
	C143.757,80.644,151.712,80.371,159.666,80z M79.061,27.388c-0.001,0.02-0.001,0.039-0.001,0.059
	c0.639-0.049,1.279-0.027,1.882,0.053c-0.001-0.038-0.001-0.074-0.002-0.111c13.82,0.244,26.351,5.834,35.618,14.794
	c-3.453,3.263-6.906,6.525-10.318,9.827c-7.542,7.25-14.987,14.594-22.41,21.963l-2.135,2.172V76.2h-0.055l-1.64,1.669l-3.877-3.948
	c-7.406-7.351-14.834-14.68-22.36-21.912c-3.412-3.302-6.866-6.564-10.317-9.827C52.709,33.222,65.242,27.632,79.061,27.388z
	 M27.42,81.699h-0.012v-0.277c-0.003-0.161-0.017-0.321-0.02-0.483c0.007,0,0.013,0,0.02,0.001v-1.88
	c-0.007,0.001-0.013,0.001-0.02,0.001c0.003-0.162,0.017-0.321,0.02-0.483v-0.152h0.006c0.402-13.566,5.946-25.859,14.768-34.981
	c3.263,3.452,6.525,6.905,9.827,10.317c7.324,7.622,14.747,15.143,22.192,22.644L77.86,80l-1.66,1.631v0.068h-0.069l-1.949,1.914
	c-7.44,7.493-14.858,15.007-22.176,22.622c-3.303,3.412-6.564,6.865-9.827,10.318C33.387,107.458,27.852,95.215,27.42,81.699z
	 M81.397,132.594v0.008h-0.194c-0.088,0.002-0.172,0.01-0.259,0.011v-0.011h-1.888v0.011c-0.087-0.001-0.172-0.009-0.259-0.011
	h-0.373v-0.016c-13.565-0.402-25.856-5.945-34.978-14.767c3.453-3.261,6.905-6.522,10.318-9.825
	c7.462-7.172,14.829-14.441,22.173-21.731L80,82.127l4.091,4.162c7.333,7.282,14.691,14.541,22.145,21.705
	c3.412,3.303,6.865,6.564,10.318,9.825C107.392,126.68,95.034,132.234,81.397,132.594z M132.612,80.944
	c-0.001,0.124-0.012,0.247-0.016,0.371v0.28h-0.012c-0.408,13.558-5.949,25.841-14.766,34.959
	c-3.261-3.453-6.522-6.906-9.825-10.318c-7.975-8.298-16.062-16.482-24.174-24.641h-0.02v-0.058l-1.564-1.538l1.564-1.537v-0.037
	c8.116-8.168,16.209-16.36,24.189-24.664c3.302-3.412,6.565-6.866,9.826-10.317c8.822,9.123,14.367,21.414,14.77,34.981h0.011v0.261
	c0.004,0.124,0.015,0.246,0.016,0.37c-0.005,0-0.011,0-0.016,0v1.889C132.602,80.944,132.607,80.944,132.612,80.944z"/>
</svg>
