<?xml version="1.0" encoding="utf-8"?>
<!-- Generator: Adobe Illustrator 15.1.0, SVG Export Plug-In . SVG Version: 6.00 Build 0)  -->
<!DOCTYPE svg PUBLIC "-//W3C//DTD SVG 1.1//EN" "http://www.w3.org/Graphics/SVG/1.1/DTD/svg11.dtd">
<svg version="1.1" id="Layer_1" xmlns="http://www.w3.org/2000/svg" xmlns:xlink="http://www.w3.org/1999/xlink" x="0px" y="0px"
	 width="24px" height="50px" viewBox="0 0 24 50" enable-background="new 0 0 24 50" xml:space="preserve">
<path fill="#231F20" d="M11.7,31.4L11.7,31.4c-1,0-2-0.7-2.5-1.7c-0.4-0.9-0.4-1.9,0-2.7c0.8-1.8,0.2-3.7,0.2-3.8
	c-0.1-0.4,0-0.8,0.2-1.1c0.2-0.3,0.6-0.4,0.9-0.2c0.3,0.2,3.3,1.8,4,4.4c0.3,1,0.2,1.9-0.1,2.8C13.9,30.6,12.9,31.4,11.7,31.4z
	 M10.7,23.5c-0.1-0.2,0.3,2.1-0.5,4.1c-0.1,0.3,0.3,0.8,0.4,1c0.2,0.4,0.7,0.7,1.1,0.7l0,0c0.5,0,1.3-0.4,1.2-1.1
	c0.2-0.4,0.9-1,0.1-1.3C13.3,26.1,11.5,24.2,10.7,23.5z"/>
<path fill="#231F20" d="M11.8,34.1c-0.4,0-0.8-0.4-0.8-1v-2.3c0-0.5,0.4-1,0.8-1s0.8,0.4,0.8,1v2.3C12.6,33.7,12.3,34.1,11.8,34.1z"
	/>
<path fill="#231F20" d="M7.3,44.5c-0.4,0-0.8-0.3-0.8-0.7c0-0.2,0-0.6,0-1c0.4-0.5,1-3.5-0.3-7.3c-0.3-1-0.2-1.8,0.3-2.2
	c0.8-0.4,2.1-0.1,2.4-0.3C9.2,33,9.4,33,9.6,33.1c1,0.3,1.2,0.4,4.3-1.3c1-0.6,2.3-1.1,3.2-0.5c0.6,0.1,0.8-1.3,0.4,4.6
	c-0.1,0.3-0.7,0.5-0.2,0.7c-1.4,4.3-0.9,7.6-0.2,7c0,0.4-0.3,0.7-0.8,0.7c-0.4,0-0.8-0.3-0.8-0.7c0-0.2-0.2-4.6,0.3-7.3
	c0.1-0.3,0.1-0.7,0.2-1c0.2-0.9,0.5-2.5,0.3-2.9c-0.1,0-0.5,0-1.5,0.6c-3.4,1.9-4.1,2-5.7,1.4c-0.2-0.1-0.4-0.1-0.6-0.2
	c-0.3-0.1-0.7-0.1-0.8,0c0,0-0.1,0.2,0.1,0.8c0.6,1.8,0.4,5.7,0.3,7.8c0,0.5,0,0.8,0,1C8.1,44.2,7.7,44.5,7.3,44.5z"/>
<g id="XMLID_1_">
	<g>
		<path fill="#231F20" d="M21.9,44.4c-0.1,0-0.1,0.1-0.2,0.1c-0.5,0.4-0.8,0.8-1.2,1.3c-0.3,0.5-0.6,1-1,1.5
			c-0.3,0.4-0.7,0.7-1.1,1.1h0c-1.1,0-2.3,0.2-3.4,0.3c-1.2,0-2.4-0.2-3.6-0.2c-1.2,0-2.4,0-3.6,0c-0.6,0-1.2,0-1.8-0.1
			c-0.4-0.1-0.8-0.2-1.2-0.3c-0.2-0.4-0.6-0.7-0.9-1.1c-0.4-0.4-0.7-0.8-1.1-1.2c-0.5-0.5-1-1-1.5-1.4l4.6,0c2,0,4,0,5.9,0
			c2,0,4,0,5.9,0l3,0C21.1,44.4,21.5,44.4,21.9,44.4z"/>
		<path fill="#231F20" d="M21.9,44.4c-0.4,0-0.8,0-1.2,0l-3,0c-2,0-4,0-5.9,0c-2,0-3.9-0.1-5.9,0l-4.6,0c0.5,0.5,1,1,1.5,1.4
			c0.4,0.4,0.7,0.8,1.1,1.2c0.3,0.3,0.6,0.7,0.9,1.1c-0.2,0-0.4-0.1-0.6-0.1l0.7,0.3c-0.1-0.1-0.1-0.2-0.2-0.2
			c0.4,0.1,0.8,0.2,1.2,0.3c0.6,0.1,1.2,0.1,1.8,0.1c1.2,0,2.4,0,3.6,0c1.2,0,2.4,0.2,3.6,0.2c1.1,0,2.3-0.3,3.4-0.3
			c-0.1,0.1-0.1,0.1-0.2,0.2l0.4-0.2c-0.1,0-0.1,0-0.2,0c0.4-0.4,0.7-0.7,1.1-1.1c0.4-0.4,0.7-1,1-1.5c0.3-0.5,0.7-1,1.2-1.3
			C21.8,44.5,21.8,44.4,21.9,44.4z M21.9,44.4c0.6,0,1.2,0,1.8,0.1l-0.4-1C22.8,43.8,22.3,44.1,21.9,44.4z M24.9,43.1l-0.8,1.2
			c-0.3,0.5-0.6,1.1-1,1.5c-0.4,0.5-0.8,0.8-1.4,1.2c-0.5,0.3-1,0.6-1.5,1c-0.5,0.4-0.9,0.8-1.3,1.3l-0.1,0.2l-0.2,0
			c-1.2,0.1-2.4-0.2-3.6-0.3c-1.2,0-2.4,0.2-3.6,0.2c-1.2,0-2.4,0-3.6,0c-0.6,0-1.2,0-1.8,0.1c-0.6,0.1-1.2,0.3-1.8,0.4l-0.3,0
			l-0.4-0.4c-0.4-0.4-0.7-0.8-1.1-1.2c-0.3-0.4-0.7-0.9-1-1.3c-0.6-0.9-1.2-1.8-1.8-2.8l-0.4-0.8l6.7,0c2,0,4,0,5.9,0
			c2,0,4,0.1,5.9,0l3,0c1,0,2,0.1,3-0.1L24.9,43.1z"/>
		<path fill="#231F20" d="M23.3,43.5l0.4,1c-0.6-0.1-1.2-0.1-1.8-0.1C22.3,44.1,22.8,43.8,23.3,43.5z"/>
		<path fill="#231F20" d="M18.6,48.5l-0.4,0.2c0.1,0,0.1-0.1,0.2-0.2h0C18.5,48.5,18.6,48.5,18.6,48.5z"/>
		<path fill="#231F20" d="M4.7,48.2c0.1,0.1,0.1,0.2,0.2,0.2l-0.7-0.3C4.4,48.1,4.5,48.1,4.7,48.2z"/>
	</g>
	<g>
	</g>
</g>
<g>
	<rect x="0.3" y="12.9" fill="#231F20" width="23.4" height="3"/>
	<path fill="#231F20" d="M23.7,16.1c-1,0.2-1.9,0.2-2.9,0.3c-1,0-1.9-0.2-2.9-0.2c-1,0-1.9,0.1-2.9,0c-1,0-1.9-0.1-2.9-0.1
		c-1,0-1.9,0.1-2.9,0.1c-1,0-1.9-0.1-2.9-0.1c-1,0.1-1.9,0.3-2.9,0.2c-1,0-1.9-0.3-2.9-0.3l-0.2,0l0-0.2c0-1,0-2,0-3l0-0.2l0.3-0.1
		c1.9-0.3,3.9-0.3,5.8-0.3l5.8-0.1l5.8,0c1,0,1.9,0,2.9,0.1c1,0.1,1.9,0.3,2.9,0.3l0.2,0l0,0.2c0,1,0.1,2,0,3l0,0.2L23.7,16.1z
		 M23.4,15.6c0-0.9,0-1.8,0-2.7l0.2,0.2c-1,0-1.9,0.2-2.9,0.3c-1,0.1-1.9,0-2.9,0.1l-5.8,0l-5.8-0.1c-1.9,0-3.9,0.1-5.8-0.3l0.3-0.3
		c-0.1,1-0.1,2,0,3l-0.2-0.2c1,0,1.9-0.2,2.9-0.3c1-0.1,1.9,0.2,2.9,0.2c1,0.1,1.9-0.1,2.9-0.1c1,0,1.9,0.1,2.9,0.1
		c1,0,1.9-0.1,2.9-0.1c1,0,1.9,0.1,2.9,0c1,0,1.9-0.2,2.9-0.2C21.7,15.4,22.5,15.4,23.4,15.6z"/>
</g>
<g>
	<rect x="3.5" y="10.4" fill="#231F20" width="17.6" height="2.5"/>
	<path fill="#231F20" d="M21.1,13.4c-2.9,0.1-5.9,0.1-8.8,0.1l-4.4,0l-4.4,0l-0.5,0l0-0.5c0-0.8,0.2-1.7,0.3-2.5l0-0.3l0.2,0
		c1.5,0.1,2.9,0,4.4,0c0.7,0,1.5,0,2.2-0.1c0.7-0.1,1.5-0.2,2.2-0.2c1.5-0.1,2.9,0,4.4,0.2c1.5,0.2,2.9,0.2,4.4,0.1l0.2,0l0,0.3
		c0,0.8,0.1,1.7,0.2,2.5l0.1,0.5L21.1,13.4z M20.6,12.4c0.1-0.7,0.2-1.3,0.2-2l0.3,0.3c-1.5-0.1-2.9-0.1-4.4,0.1
		c-1.5,0.2-2.9,0.2-4.4,0.2c-0.7,0-1.5-0.1-2.2-0.2c-0.7-0.1-1.5-0.1-2.2-0.1c-1.5,0.1-2.9,0-4.4,0l0.2-0.2c0,0.8,0.2,1.7,0.3,2.5
		l-0.5-0.5l4.4,0l4.4,0C15.1,12.3,17.8,12.3,20.6,12.4z"/>
</g>
<path fill="#231F20" d="M13.9,7.4c0-0.5-0.1-1-0.4-1.5c-0.3-0.4-0.9-0.7-1.5-0.7c-0.6,0-1.1,0.2-1.5,0.7c-0.4,0.4-0.5,1-0.4,1.5
	c0.1,0.5,0.3,1,0.6,1.4c0.3,0.4,0.8,0.8,1.4,0.8c0.6,0,1.1-0.3,1.4-0.7C13.8,8.3,13.8,7.8,13.9,7.4L13.9,7.4z M14.9,7.3
	c0,0.8-0.4,1.5-0.9,1.9C13.4,9.7,12.7,10,12,10c-0.7,0-1.4-0.1-2-0.6c-0.6-0.5-0.9-1.3-0.8-2c0.2-1.5,1.4-2.6,2.8-2.6
	c0.7,0,1.4,0.2,1.9,0.7C14.5,5.9,14.8,6.6,14.9,7.3L14.9,7.3z"/>
<g>
	<line fill="#231F20" x1="1.3" y1="15.7" x2="5.1" y2="43.8"/>
	<path fill="#231F20" d="M2.3,15.6c-0.2,1.2-0.2,2.4-0.1,3.6c0.2,1.2,0.4,2.3,0.5,3.5l0.9,7C3.9,30.9,4,32,4.2,33.2
		c0.2,1.2,0.6,2.3,0.6,3.5c0.1,2.4,0.1,4.8,1.6,6.9L3.8,44c0.8-2.5,0.2-4.8-0.3-7.1c-0.3-1.1-0.2-2.4-0.3-3.5
		c-0.1-1.2-0.3-2.3-0.5-3.5l-0.9-7c-0.2-1.2-0.3-2.3-0.4-3.5c-0.2-1.2-0.5-2.3-1-3.4L2.3,15.6z"/>
</g>
<g>
	<line fill="#231F20" x1="21.7" y1="15.8" x2="18.4" y2="43.8"/>
	<path fill="#231F20" d="M22.7,15.9c-0.5,1.1-0.8,2.3-1,3.4c-0.1,1.2-0.2,2.3-0.4,3.5l-0.8,7c-0.1,1.2-0.3,2.3-0.4,3.5
		c-0.1,1.2,0,2.4-0.3,3.5c-0.5,2.3-1.1,4.6-0.2,7.1l-2.5-0.3c1.4-2.2,1.4-4.6,1.4-6.9c0-1.2,0.4-2.3,0.5-3.5
		c0.2-1.2,0.3-2.3,0.4-3.5l0.8-7c0.1-1.2,0.3-2.3,0.5-3.5c0.1-1.2,0.1-2.4-0.1-3.6L22.7,15.9z"/>
</g>
</svg>
