<?xml version="1.0" encoding="utf-8"?>
<!-- Generator: Adobe Illustrator 15.1.0, SVG Export Plug-In . SVG Version: 6.00 Build 0)  -->
<!DOCTYPE svg PUBLIC "-//W3C//DTD SVG 1.1//EN" "http://www.w3.org/Graphics/SVG/1.1/DTD/svg11.dtd">
<svg version="1.1" id="Layer_1" xmlns="http://www.w3.org/2000/svg" xmlns:xlink="http://www.w3.org/1999/xlink" x="0px" y="0px"
	 width="160px" height="160px" viewBox="0 0 160 160" enable-background="new 0 0 160 160" xml:space="preserve">
<g id="XMLID_1_">
	<g>
		<path fill="#BCBEC0" d="M106.24,107.99c3.41,3.31,6.859,6.569,10.31,9.83c-9.16,8.859-21.52,14.41-35.149,14.77v0.01h-0.2
			c-0.08,0-0.17,0.011-0.26,0.011V132.6h-1.88v0.011c-0.09,0-0.18-0.011-0.26-0.011h-0.38v-0.01c-13.56-0.41-25.85-5.95-34.97-14.77
			c3.45-3.261,6.9-6.521,10.31-9.83c7.47-7.17,14.83-14.44,22.18-21.73L80,82.13l4.09,4.16C91.42,93.57,98.78,100.83,106.24,107.99z
			"/>
		<path fill="#BCBEC0" d="M132.6,78.69c0,0.12,0.011,0.24,0.011,0.37H132.6v1.88h0.011c0,0.13-0.011,0.25-0.011,0.37v0.28h-0.02
			c-0.4,13.561-5.94,25.851-14.76,34.96c-3.261-3.45-6.521-6.899-9.83-10.31c-7.971-8.3-16.061-16.49-24.17-24.65H83.8v-0.05
			L82.24,80l1.56-1.54v-0.04c8.12-8.16,16.21-16.36,24.19-24.66c3.3-3.41,6.569-6.86,9.83-10.32
			c8.819,9.13,14.359,21.42,14.77,34.98h0.01V78.69z"/>
		<path fill="#231F20" d="M135.8,79.13c7.96,0.23,15.91,0.5,23.87,0.87c-7.96,0.37-15.91,0.64-23.87,0.87
			c-0.229,14.75-6.2,28.13-15.78,37.99c4.771,5.08,9.521,10.199,14.211,15.37c-5.171-4.69-10.29-9.44-15.37-14.211
			C109,129.6,95.62,135.57,80.87,135.8c-0.23,7.96-0.5,15.91-0.87,23.87c-0.37-7.96-0.64-15.91-0.87-23.87
			c-14.75-0.229-28.13-6.2-37.99-15.78c-5.08,4.771-10.2,9.521-15.37,14.211c4.69-5.171,9.43-10.29,14.21-15.37
			c-9.58-9.86-15.55-23.24-15.78-38C16.24,80.64,8.29,80.37,0.33,80c7.96-0.37,15.91-0.64,23.87-0.86c0.23-14.76,6.2-28.14,15.78-38
			c-4.77-5.09-9.52-10.2-14.21-15.37c5.17,4.69,10.28,9.44,15.37,14.21c9.86-9.58,23.24-15.55,38-15.78
			C79.36,16.24,79.63,8.29,80,0.33c0.37,7.96,0.64,15.91,0.86,23.87c14.76,0.23,28.14,6.2,38.01,15.78
			c5.08-4.77,10.189-9.52,15.36-14.21c-4.69,5.17-9.44,10.28-14.211,15.37C129.6,51,135.57,64.38,135.8,79.13z M132.61,79.06
			c0-0.13-0.011-0.25-0.011-0.37v-0.27h-0.01c-0.41-13.56-5.95-25.85-14.77-34.98l-1.261-1.26c-9.27-8.96-21.8-14.55-35.62-14.79
			c0,0.04,0,0.07,0,0.11c-0.6-0.08-1.24-0.1-1.88-0.05c0-0.02,0-0.04,0-0.06c-13.82,0.24-26.35,5.83-35.62,14.79l-1.26,1.26
			c-4.41,4.56-8,9.92-10.54,15.83s-4.02,12.37-4.23,19.16v0.15c-0.01,0.16-0.02,0.32-0.02,0.48c0.01,0,0.01,0,0.02,0v1.88
			c-0.01,0-0.01,0-0.02,0c0,0.16,0.01,0.32,0.02,0.48v0.28h0.01c0.43,13.51,5.97,25.76,14.76,34.85l1.27,1.271
			c9.12,8.819,21.41,14.359,34.97,14.77v0.01h0.38c0.08,0,0.17,0.011,0.26,0.011V132.6h1.88v0.011c0.09,0,0.18-0.011,0.26-0.011h0.2
			v-0.01c13.63-0.359,25.989-5.91,35.149-14.77l1.271-1.271c8.819-9.109,14.359-21.399,14.76-34.96h0.02v-0.28
			c0-0.119,0.011-0.239,0.011-0.37H132.6v-1.88H132.61z"/>
		<path fill="#231F20" d="M117.82,116.55l-1.271,1.271c-3.45-3.261-6.899-6.521-10.31-9.83c-7.46-7.16-14.82-14.42-22.15-21.7
			L80,82.13l-4.06,4.13c-7.35,7.29-14.71,14.561-22.18,21.73c-3.41,3.31-6.86,6.569-10.31,9.83l-1.27-1.271
			c3.26-3.45,6.52-6.899,9.83-10.31c7.31-7.62,14.73-15.13,22.17-22.63l1.95-1.91h0.07v-0.07L77.86,80l-3.66-3.6
			c-7.44-7.5-14.87-15.02-22.19-22.64c-3.3-3.41-6.56-6.86-9.83-10.32l1.26-1.26c3.46,3.27,6.91,6.53,10.32,9.83
			c7.53,7.23,14.96,14.56,22.36,21.91L80,77.87l1.64-1.67h0.051v-0.06l2.14-2.17c7.42-7.37,14.87-14.71,22.41-21.96
			c3.41-3.3,6.859-6.56,10.319-9.83l1.261,1.26c-3.261,3.46-6.53,6.91-9.83,10.32c-7.98,8.3-16.07,16.5-24.19,24.66v0.04L82.24,80
			l1.56,1.54v0.05h0.021c8.109,8.16,16.199,16.351,24.17,24.65C111.3,109.65,114.56,113.1,117.82,116.55z"/>
		<path fill="#BCBEC0" d="M116.56,42.18c-3.46,3.27-6.909,6.53-10.319,9.83C98.7,59.26,91.25,66.6,83.83,73.97l-2.14,2.17v0.06
			H81.64L80,77.87l-3.88-3.95c-7.4-7.35-14.83-14.68-22.36-21.91c-3.41-3.3-6.86-6.56-10.32-9.83c9.27-8.96,21.8-14.55,35.62-14.79
			c0,0.02,0,0.04,0,0.06c0.64-0.05,1.28-0.03,1.88,0.05c0-0.04,0-0.07,0-0.11C94.76,27.63,107.29,33.22,116.56,42.18z"/>
	</g>
	<g>
	</g>
</g>
</svg>
